<svg width="135" height="135" viewBox="0 0 135 135" fill="none" xmlns="http://www.w3.org/2000/svg">
<path fill-rule="evenodd" clip-rule="evenodd" d="M57.0895 0.650065C39.2954 3.46553 23.7368 12.9281 12.9005 27.525C4.93102 38.2606 0 52.7941 0 65.5496C0 67.3254 0.163938 68.7782 0.363862 68.7782C0.564231 68.7782 2.50527 66.9314 4.67779 64.6737C6.8503 62.416 12.2367 56.8751 16.6479 52.3601C21.0591 47.8452 31.7578 36.8629 40.422 27.955C49.0868 19.0471 58.7711 9.11333 61.9428 5.87942L67.3705 0.346063C67.4955 0.218669 67.4037 0.00380795 67.2252 0.00602642L64.1766 0.0439293C62.2338 0.0678907 59.0443 0.340785 57.0895 0.650065ZM54.1226 33.8344C22.1738 66.0971 17.9661 70.4209 16.0975 72.9084C10.9567 79.7521 8.88464 90.8431 11.1007 99.6573C12.5824 105.55 15.196 110.138 19.5473 114.482C23.675 118.604 27.3186 120.881 32.8765 122.809C35.8727 123.849 36.8576 123.966 42.6505 123.966C48.5123 123.966 49.4124 123.856 52.6468 122.75C59.9702 120.243 60.7339 119.609 82.1911 98.2055C93.0648 87.3589 102.261 78.3002 102.628 78.0752C105.401 76.373 111.231 80.0644 112.392 84.2577C113.235 87.3048 115.095 85.2774 84.1904 115.01C74.905 123.943 66.5082 132.095 65.5308 133.126L64.4289 134.288C64.1822 134.548 64.3761 134.976 64.7344 134.963L70.4178 134.747C77.8319 134.464 83.4653 133.451 89.6101 131.294C112.347 123.309 128.554 104.886 133.764 81.1005C134.927 75.7926 135.374 64.73 134.648 59.238C133.98 54.1825 132.658 48.7362 130.949 43.9954L129.612 40.2898L100.904 68.9113C70.0242 99.6968 70.8057 99.0139 64.1748 100.998C60.3496 102.142 54.0116 102.056 49.9033 100.805C40.0911 97.8163 32.868 88.6737 32.1372 78.3184C31.8026 73.5789 32.4904 70.2092 34.7189 65.6721C36.4818 62.0827 37.1735 61.2942 49.037 49.3494C55.8931 42.4463 61.9486 36.6863 62.4937 36.55C66.039 35.6613 71.9546 41.1498 71.9826 45.3537C71.9914 46.68 70.9385 47.8496 60.482 58.1286C54.1515 64.352 48.6047 70.1426 48.1556 70.9968C47.5922 72.068 47.3363 73.5141 47.3301 75.656C47.323 78.2633 47.5287 79.1366 48.6118 81.0934C51.3761 86.0876 56.5368 88.088 61.9255 86.254C63.7861 85.6213 67.4429 82.1531 93.207 56.5885L122.382 27.6395L119.774 24.4557C113.27 16.5156 104.007 9.55484 94.586 5.52755C91.7382 4.30995 86.0048 2.21865 85.5148 2.21865C85.469 2.21865 71.3423 16.446 54.1226 33.8344Z" fill="white"/>
</svg>
