<svg width="802" height="192" viewBox="0 0 802 192" fill="none" xmlns="http://www.w3.org/2000/svg">
<path fill-rule="evenodd" clip-rule="evenodd" d="M80.7842 0.919871C55.6047 4.90388 33.5886 18.2938 18.2547 38.9491C6.97762 54.1405 0 74.7061 0 92.7556C0 95.2685 0.23198 97.3242 0.514882 97.3242C0.798412 97.3242 3.54508 94.7109 6.61928 91.5162C9.69348 88.3214 17.3155 80.4808 23.5576 74.092C29.7996 67.7031 44.9387 52.1626 57.199 39.5576C69.46 26.9525 83.1638 12.8958 87.6519 8.31965L95.3323 0.489695C95.5091 0.309426 95.3792 0.00538842 95.1267 0.00852765L90.8128 0.0621619C88.0636 0.0960684 83.5504 0.482226 80.7842 0.919871ZM76.586 47.8772C31.377 93.5305 25.4228 99.6487 22.7786 103.169C15.5043 112.853 12.5722 128.547 15.708 141.02C17.8046 149.358 21.5031 155.85 27.6603 161.998C33.5013 167.83 38.657 171.051 46.5217 173.781C50.7614 175.253 52.1552 175.417 60.3524 175.417C68.6471 175.417 69.9208 175.262 74.4975 173.696C84.8606 170.15 85.9412 169.252 116.304 138.965C131.691 123.617 144.704 110.798 145.223 110.48C149.148 108.071 157.397 113.295 159.039 119.228C160.233 123.54 162.865 120.671 119.133 162.744C105.994 175.385 94.1121 186.92 92.729 188.379L91.1699 190.023C90.8208 190.391 91.0951 190.998 91.6021 190.978L99.6444 190.673C110.136 190.273 118.107 188.839 126.802 185.786C158.976 174.488 181.91 148.418 189.282 114.761C190.927 107.25 191.561 91.5959 190.533 83.8244C189.588 76.6708 187.717 68.9639 185.298 62.2555L183.407 57.0119L142.783 97.5126C99.0874 141.076 100.193 140.109 90.8103 142.917C85.3974 144.535 76.4288 144.414 70.6155 142.643C56.7307 138.414 46.5097 125.477 45.4756 110.824C45.0022 104.117 45.9754 99.3492 49.1288 92.9289C51.6233 87.8499 52.6022 86.7341 69.3896 69.8317C79.0912 60.0635 87.66 51.9127 88.4314 51.72C93.4482 50.4623 101.819 58.2288 101.859 64.1775C101.871 66.0543 100.381 67.7094 85.5848 82.2547C76.6268 91.0609 68.7779 99.255 68.1423 100.464C67.3451 101.979 66.983 104.026 66.9742 107.057C66.9642 110.746 67.2552 111.982 68.7879 114.751C72.6995 121.818 80.0022 124.648 87.6273 122.053C90.2602 121.158 95.4348 116.25 131.892 80.0752L173.176 39.1111L169.485 34.606C160.282 23.3704 147.175 13.5205 133.843 7.82173C129.814 6.09877 121.701 3.13949 121.007 3.13949C120.943 3.13949 100.953 23.2718 76.586 47.8772Z" fill="white"/>
<path d="M494.387 139.879C493.996 139.879 493.668 139.746 493.402 139.479C493.135 139.213 493.002 138.884 493.002 138.494V120.46C493.002 120.051 493.135 119.723 493.402 119.474C493.668 119.208 493.996 119.075 494.387 119.075H499.715C501.047 119.075 502.227 119.368 503.257 119.954C504.287 120.54 505.087 121.357 505.655 122.404C506.241 123.434 506.534 124.624 506.534 125.974C506.534 127.27 506.241 128.425 505.655 129.437C505.087 130.449 504.287 131.239 503.257 131.808C502.227 132.376 501.047 132.66 499.715 132.66H495.772V138.494C495.772 138.884 495.639 139.213 495.373 139.479C495.124 139.746 494.796 139.879 494.387 139.879ZM495.772 130.103H499.715C500.532 130.103 501.251 129.925 501.872 129.57C502.494 129.215 502.982 128.726 503.337 128.105C503.693 127.483 503.87 126.773 503.87 125.974C503.87 125.121 503.693 124.376 503.337 123.736C502.982 123.079 502.494 122.564 501.872 122.191C501.251 121.818 500.532 121.632 499.715 121.632H495.772V130.103Z" fill="white"/>
<path d="M256.147 140.295C255.757 140.295 255.419 140.162 255.135 139.895C254.851 139.629 254.709 139.301 254.709 138.91V120.876C254.709 120.468 254.851 120.139 255.135 119.891C255.419 119.624 255.757 119.491 256.147 119.491C256.556 119.491 256.876 119.624 257.106 119.891C257.355 120.139 257.479 120.468 257.479 120.876V135.98L270.265 119.997C270.55 119.66 270.905 119.491 271.331 119.491C271.739 119.491 272.068 119.624 272.317 119.891C272.583 120.139 272.716 120.468 272.716 120.876V138.91C272.716 139.301 272.583 139.629 272.317 139.895C272.068 140.162 271.739 140.295 271.331 140.295C270.94 140.295 270.612 140.162 270.345 139.895C270.079 139.629 269.946 139.301 269.946 138.91V123.833L257.213 139.816C257.089 139.958 256.929 140.073 256.733 140.162C256.538 140.251 256.343 140.295 256.147 140.295Z" fill="white"/>
<path d="M278.629 140.295C278.238 140.295 277.91 140.162 277.643 139.895C277.377 139.629 277.244 139.301 277.244 138.91V120.876C277.244 120.468 277.377 120.139 277.643 119.891C277.91 119.624 278.238 119.491 278.629 119.491C279.037 119.491 279.366 119.624 279.615 119.891C279.881 120.139 280.014 120.468 280.014 120.876V128.521H292.374V120.876C292.374 120.468 292.507 120.139 292.774 119.891C293.04 119.624 293.369 119.491 293.759 119.491C294.168 119.491 294.496 119.624 294.745 119.891C294.994 120.139 295.118 120.468 295.118 120.876V138.91C295.118 139.301 294.994 139.629 294.745 139.895C294.496 140.162 294.168 140.295 293.759 140.295C293.369 140.295 293.04 140.162 292.774 139.895C292.507 139.629 292.374 139.301 292.374 138.91V130.972H280.014V138.91C280.014 139.301 279.881 139.629 279.615 139.895C279.366 140.162 279.037 140.295 278.629 140.295Z" fill="white"/>
<path d="M301.034 140.295C300.643 140.295 300.315 140.162 300.048 139.895C299.782 139.629 299.649 139.301 299.649 138.91V120.876C299.649 120.468 299.782 120.139 300.048 119.891C300.315 119.624 300.643 119.491 301.034 119.491C301.442 119.491 301.771 119.624 302.019 119.891C302.286 120.139 302.419 120.468 302.419 120.876V128.521H314.779V120.876C314.779 120.468 314.912 120.139 315.179 119.891C315.445 119.624 315.773 119.491 316.164 119.491C316.573 119.491 316.901 119.624 317.15 119.891C317.398 120.139 317.523 120.468 317.523 120.876V138.91C317.523 139.301 317.398 139.629 317.15 139.895C316.901 140.162 316.573 140.295 316.164 140.295C315.773 140.295 315.445 140.162 315.179 139.895C314.912 139.629 314.779 139.301 314.779 138.91V130.972H302.419V138.91C302.419 139.301 302.286 139.629 302.019 139.895C301.771 140.162 301.442 140.295 301.034 140.295Z" fill="white"/>
<path d="M331.67 140.561C330.107 140.561 328.677 140.304 327.381 139.789C326.085 139.256 324.966 138.519 324.025 137.578C323.101 136.619 322.382 135.491 321.867 134.195C321.352 132.881 321.095 131.442 321.095 129.88C321.095 128.317 321.352 126.887 321.867 125.591C322.382 124.295 323.101 123.176 324.025 122.235C324.966 121.276 326.085 120.539 327.381 120.024C328.677 119.491 330.107 119.225 331.67 119.225C333.233 119.225 334.653 119.491 335.932 120.024C337.228 120.539 338.347 121.276 339.288 122.235C340.229 123.176 340.957 124.295 341.472 125.591C341.987 126.887 342.245 128.317 342.245 129.88C342.245 131.442 341.987 132.881 341.472 134.195C340.957 135.491 340.229 136.619 339.288 137.578C338.347 138.519 337.228 139.256 335.932 139.789C334.653 140.304 333.233 140.561 331.67 140.561ZM331.67 138.057C332.824 138.057 333.881 137.853 334.84 137.445C335.816 137.019 336.66 136.441 337.37 135.713C338.081 134.968 338.622 134.097 338.995 133.103C339.386 132.108 339.581 131.034 339.581 129.88C339.581 128.725 339.386 127.651 338.995 126.657C338.622 125.662 338.081 124.801 337.37 124.073C336.66 123.327 335.816 122.75 334.84 122.341C333.881 121.933 332.824 121.729 331.67 121.729C330.515 121.729 329.45 121.933 328.473 122.341C327.514 122.75 326.68 123.327 325.969 124.073C325.277 124.801 324.735 125.662 324.344 126.657C323.954 127.651 323.758 128.725 323.758 129.88C323.758 131.034 323.954 132.108 324.344 133.103C324.735 134.097 325.277 134.968 325.969 135.713C326.68 136.441 327.514 137.019 328.473 137.445C329.45 137.853 330.515 138.057 331.67 138.057Z" fill="white"/>
<path d="M347.17 140.295C346.78 140.295 346.451 140.162 346.185 139.895C345.918 139.629 345.785 139.301 345.785 138.91V120.876C345.785 120.468 345.918 120.139 346.185 119.891C346.451 119.624 346.78 119.491 347.17 119.491H353.537C354.744 119.491 355.801 119.731 356.707 120.21C357.63 120.672 358.349 121.32 358.864 122.155C359.397 122.989 359.663 123.948 359.663 125.032C359.663 125.902 359.424 126.692 358.944 127.402C358.482 128.095 357.843 128.645 357.026 129.054C358.198 129.338 359.139 129.897 359.85 130.732C360.56 131.567 360.915 132.659 360.915 134.009C360.915 135.234 360.622 136.317 360.036 137.258C359.468 138.2 358.669 138.945 357.639 139.496C356.609 140.029 355.428 140.295 354.096 140.295H347.17ZM348.555 137.738H354.096C354.913 137.738 355.632 137.596 356.254 137.312C356.875 137.028 357.364 136.61 357.719 136.06C358.074 135.509 358.252 134.825 358.252 134.009C358.252 133.245 358.074 132.615 357.719 132.117C357.364 131.62 356.875 131.247 356.254 130.998C355.632 130.732 354.913 130.599 354.096 130.599H348.555V137.738ZM348.555 128.042H353.537C354.549 128.042 355.375 127.793 356.014 127.296C356.671 126.799 357 126.044 357 125.032C357 124.019 356.671 123.274 356.014 122.794C355.375 122.297 354.549 122.048 353.537 122.048H348.555V128.042Z" fill="white"/>
<path d="M395.244 140.295C394.853 140.295 394.524 140.162 394.258 139.895C393.992 139.629 393.859 139.301 393.859 138.91V119.491H396.629V138.91C396.629 139.301 396.496 139.629 396.229 139.895C395.963 140.162 395.634 140.295 395.244 140.295ZM388.105 122.048C387.732 122.048 387.421 121.933 387.172 121.702C386.942 121.453 386.826 121.143 386.826 120.77C386.826 120.397 386.942 120.095 387.172 119.864C387.421 119.615 387.732 119.491 388.105 119.491H402.356C402.729 119.491 403.031 119.615 403.262 119.864C403.51 120.095 403.635 120.397 403.635 120.77C403.635 121.143 403.51 121.453 403.262 121.702C403.031 121.933 402.729 122.048 402.356 122.048H388.105Z" fill="white"/>
<path d="M416.057 140.561C414.494 140.561 413.064 140.304 411.768 139.789C410.471 139.256 409.353 138.519 408.411 137.578C407.488 136.619 406.769 135.491 406.254 134.195C405.739 132.881 405.481 131.442 405.481 129.88C405.481 128.317 405.739 126.887 406.254 125.591C406.769 124.295 407.488 123.176 408.411 122.235C409.353 121.276 410.471 120.539 411.768 120.024C413.064 119.491 414.494 119.225 416.057 119.225C417.619 119.225 419.04 119.491 420.319 120.024C421.615 120.539 422.734 121.276 423.675 122.235C424.616 123.176 425.344 124.295 425.859 125.591C426.374 126.887 426.632 128.317 426.632 129.88C426.632 131.442 426.374 132.881 425.859 134.195C425.344 135.491 424.616 136.619 423.675 137.578C422.734 138.519 421.615 139.256 420.319 139.789C419.04 140.304 417.619 140.561 416.057 140.561ZM416.057 138.057C417.211 138.057 418.267 137.853 419.226 137.445C420.203 137.019 421.047 136.441 421.757 135.713C422.467 134.968 423.009 134.097 423.382 133.103C423.773 132.108 423.968 131.034 423.968 129.88C423.968 128.725 423.773 127.651 423.382 126.657C423.009 125.662 422.467 124.801 421.757 124.073C421.047 123.327 420.203 122.75 419.226 122.341C418.267 121.933 417.211 121.729 416.057 121.729C414.902 121.729 413.837 121.933 412.86 122.341C411.901 122.75 411.066 123.327 410.356 124.073C409.663 124.801 409.122 125.662 408.731 126.657C408.34 127.651 408.145 128.725 408.145 129.88C408.145 131.034 408.34 132.108 408.731 133.103C409.122 134.097 409.663 134.968 410.356 135.713C411.066 136.441 411.901 137.019 412.86 137.445C413.837 137.853 414.902 138.057 416.057 138.057Z" fill="white"/>
<path d="M433.422 140.295C433.031 140.295 432.702 140.162 432.436 139.895C432.17 139.629 432.036 139.301 432.036 138.91V120.876C432.036 120.468 432.17 120.139 432.436 119.891C432.702 119.624 433.031 119.491 433.422 119.491H438.749C440.081 119.491 441.262 119.784 442.292 120.37C443.322 120.956 444.121 121.773 444.689 122.821C445.275 123.851 445.568 125.041 445.568 126.39C445.568 127.687 445.275 128.841 444.689 129.853C444.121 130.865 443.322 131.656 442.292 132.224C441.262 132.792 440.081 133.076 438.749 133.076H434.807V138.91C434.807 139.301 434.674 139.629 434.407 139.895C434.159 140.162 433.83 140.295 433.422 140.295ZM434.807 130.519H438.749C439.566 130.519 440.285 130.341 440.907 129.986C441.528 129.631 442.017 129.143 442.372 128.521C442.727 127.9 442.905 127.189 442.905 126.39C442.905 125.538 442.727 124.792 442.372 124.153C442.017 123.496 441.528 122.981 440.907 122.608C440.285 122.235 439.566 122.048 438.749 122.048H434.807V130.519Z" fill="white"/>
<path d="M448.12 140.295C447.622 140.295 447.241 140.082 446.974 139.656C446.708 139.23 446.681 138.777 446.894 138.297L454.379 120.423C454.646 119.802 455.081 119.491 455.685 119.491C456.324 119.491 456.759 119.802 456.99 120.423L464.502 138.351C464.697 138.848 464.671 139.301 464.422 139.709C464.191 140.1 463.818 140.295 463.303 140.295C463.037 140.295 462.779 140.224 462.531 140.082C462.3 139.922 462.131 139.709 462.025 139.443L455.365 123.034H456.217L449.398 139.443C449.274 139.727 449.087 139.94 448.839 140.082C448.608 140.224 448.368 140.295 448.12 140.295Z" fill="white"/>
<path d="M382.644 137.668V128.439C382.501 125.578 380.305 120.176 372.665 121.464C370.769 121.822 366.934 123.567 366.763 127.688C366.709 128.977 366.682 130.055 366.672 130.942C366.648 133.135 366.917 135.564 368.715 136.82C369.66 137.48 370.959 137.906 372.665 137.668C376.356 137.152 377.493 134.234 377.601 132.839" stroke="white" stroke-width="3.64843" stroke-linecap="round"/>
<path d="M486.288 137.668V128.439C486.145 125.578 483.948 120.176 476.308 121.464C474.412 121.822 470.578 123.567 470.406 127.688C470.353 128.977 470.325 130.055 470.316 130.942C470.292 133.135 470.561 135.564 472.359 136.82C473.304 137.48 474.602 137.906 476.308 137.668C480 137.152 481.137 134.234 481.244 132.839" stroke="white" stroke-width="3.64843" stroke-linecap="round"/>
<path d="M569.943 137.577V128.349C569.8 125.487 567.604 120.086 559.963 121.374C558.068 121.732 554.233 123.477 554.062 127.598C554.008 128.887 553.981 129.965 553.971 130.852C553.947 133.045 554.216 135.473 556.014 136.73C556.959 137.39 558.257 137.815 559.963 137.577C563.655 137.062 564.792 134.143 564.9 132.748" stroke="white" stroke-width="3.64843" stroke-linecap="round"/>
<path d="M688.668 137.827V128.599C688.525 125.737 686.328 120.336 678.688 121.624C676.792 121.982 672.958 123.727 672.786 127.848C672.732 129.137 672.705 130.215 672.696 131.102C672.672 133.295 672.941 135.723 674.739 136.98C675.684 137.64 676.982 138.065 678.688 137.827C682.379 137.312 683.517 134.393 683.624 132.998" stroke="white" stroke-width="3.64843" stroke-linecap="round"/>
<path d="M547.331 144.832C546.94 144.832 546.611 144.699 546.345 144.433C546.079 144.167 545.945 143.838 545.945 143.447V140.091H545.839C545.608 140.109 545.368 140.091 545.12 140.038C544.889 139.967 544.702 139.842 544.56 139.665L537.714 130.768H534.864V138.706C534.864 139.096 534.731 139.425 534.465 139.691C534.216 139.958 533.887 140.091 533.479 140.091C533.088 140.091 532.76 139.958 532.493 139.691C532.227 139.425 532.094 139.096 532.094 138.706V120.672C532.094 120.264 532.227 119.935 532.493 119.686C532.76 119.42 533.088 119.287 533.479 119.287C533.887 119.287 534.216 119.42 534.465 119.686C534.731 119.935 534.864 120.264 534.864 120.672V128.317H537.608L544.773 119.74C545.022 119.438 545.342 119.287 545.732 119.287C546.141 119.269 546.469 119.402 546.718 119.686C546.966 119.971 547.082 120.272 547.064 120.592C547.064 120.894 546.94 121.187 546.691 121.471L539.952 129.303L546.345 137.64H547.331C547.739 137.64 548.068 137.773 548.316 138.04C548.583 138.288 548.716 138.617 548.716 139.025V143.447C548.716 143.838 548.583 144.167 548.316 144.433C548.068 144.699 547.739 144.832 547.331 144.832Z" fill="white"/>
<path d="M581.093 140.331C580.276 140.331 579.495 140.091 578.749 139.611C578.411 139.398 578.198 139.123 578.11 138.786C578.039 138.448 578.101 138.129 578.296 137.827C578.491 137.507 578.767 137.321 579.122 137.267C579.477 137.196 579.85 137.267 580.241 137.48C580.365 137.551 580.507 137.614 580.667 137.667C580.827 137.702 580.969 137.72 581.093 137.72C581.572 137.72 582.061 137.498 582.558 137.054C583.073 136.593 583.526 135.953 583.917 135.136L591.242 120.113C591.633 119.331 592.21 119.109 592.973 119.447C593.737 119.784 593.923 120.352 593.533 121.152L586.207 136.202C585.568 137.498 584.813 138.51 583.943 139.239C583.073 139.967 582.123 140.331 581.093 140.331ZM584.982 135.882L576.085 121.285C575.659 120.557 575.828 119.971 576.591 119.527C577.337 119.1 577.932 119.26 578.376 120.006L586.714 134.524L584.982 135.882Z" fill="white"/>
<path d="M598.385 140.091C597.994 140.091 597.666 139.958 597.399 139.691C597.133 139.425 597 139.096 597 138.706V120.539C597 120.166 597.133 119.864 597.399 119.633C597.666 119.402 597.994 119.287 598.385 119.287C598.793 119.287 599.122 119.402 599.37 119.633C599.637 119.864 599.77 120.166 599.77 120.539V127.305H604.245C605.577 127.305 606.758 127.571 607.788 128.104C608.818 128.637 609.617 129.374 610.185 130.315C610.771 131.238 611.064 132.313 611.064 133.538C611.064 134.817 610.771 135.953 610.185 136.948C609.617 137.924 608.818 138.697 607.788 139.265C606.758 139.816 605.577 140.091 604.245 140.091H598.385ZM599.77 137.534H604.245C605.062 137.534 605.781 137.383 606.403 137.081C607.024 136.779 607.513 136.335 607.868 135.749C608.223 135.145 608.401 134.408 608.401 133.538C608.401 132.65 608.223 131.931 607.868 131.38C607.513 130.812 607.024 130.395 606.403 130.128C605.781 129.844 605.062 129.702 604.245 129.702H599.77V137.534ZM615.566 140.091C615.175 140.091 614.847 139.958 614.581 139.691C614.314 139.425 614.181 139.096 614.181 138.706V120.672C614.181 120.264 614.314 119.935 614.581 119.686C614.847 119.42 615.175 119.287 615.566 119.287C615.957 119.287 616.277 119.42 616.525 119.686C616.792 119.935 616.925 120.264 616.925 120.672V138.706C616.925 139.096 616.792 139.425 616.525 139.691C616.277 139.958 615.957 140.091 615.566 140.091Z" fill="white"/>
<path d="M623.377 140.091C622.987 140.091 622.658 139.958 622.392 139.691C622.125 139.425 621.992 139.096 621.992 138.706V120.672C621.992 120.264 622.125 119.935 622.392 119.686C622.658 119.42 622.987 119.287 623.377 119.287C623.91 119.287 624.319 119.536 624.603 120.033L632.94 136.735H632.088L640.213 120.033C640.497 119.536 640.905 119.287 641.438 119.287C641.829 119.287 642.157 119.42 642.423 119.686C642.69 119.935 642.823 120.264 642.823 120.672V138.706C642.823 139.096 642.681 139.425 642.397 139.691C642.13 139.958 641.811 140.091 641.438 140.091C641.047 140.091 640.719 139.958 640.452 139.691C640.186 139.425 640.053 139.096 640.053 138.706V124.508L640.585 124.375L633.606 138.599C633.304 139.061 632.905 139.292 632.408 139.292C631.822 139.292 631.395 139.017 631.129 138.466L624.23 124.641L624.763 124.508V138.706C624.763 139.096 624.629 139.425 624.363 139.691C624.097 139.958 623.768 140.091 623.377 140.091Z" fill="white"/>
<path d="M650.266 139.239L647.895 138.093L655.381 120.219C655.647 119.598 656.082 119.287 656.686 119.287C657.325 119.287 657.76 119.598 657.991 120.219L665.503 138.146L663.292 139.239L656.526 122.83H656.899L650.266 139.239ZM647.283 144.832C646.892 144.832 646.564 144.699 646.297 144.433C646.031 144.167 645.898 143.838 645.898 143.447V139.025C645.898 138.617 646.031 138.288 646.297 138.04C646.564 137.773 646.892 137.64 647.283 137.64H666.036C666.444 137.64 666.773 137.773 667.021 138.04C667.288 138.288 667.421 138.617 667.421 139.025V143.447C667.421 143.838 667.288 144.167 667.021 144.433C666.773 144.699 666.444 144.832 666.036 144.832C665.645 144.832 665.317 144.699 665.05 144.433C664.784 144.167 664.651 143.838 664.651 143.447V140.091H648.668V143.447C648.668 143.838 648.535 144.167 648.268 144.433C648.02 144.699 647.691 144.832 647.283 144.832Z" fill="white"/>
<path d="M705.533 140.357C704.094 140.357 702.745 140.091 701.484 139.558C700.241 139.008 699.149 138.253 698.207 137.294C697.284 136.317 696.556 135.181 696.023 133.884C695.508 132.588 695.251 131.185 695.251 129.676C695.251 128.184 695.508 126.799 696.023 125.52C696.556 124.224 697.284 123.096 698.207 122.137C699.149 121.16 700.241 120.397 701.484 119.846C702.727 119.296 704.077 119.021 705.533 119.021C706.9 119.021 708.072 119.198 709.049 119.553C710.044 119.908 711.038 120.494 712.032 121.311C712.175 121.418 712.281 121.533 712.352 121.658C712.441 121.764 712.494 121.88 712.512 122.004C712.547 122.11 712.565 122.244 712.565 122.404C712.565 122.741 712.441 123.025 712.192 123.256C711.961 123.469 711.677 123.593 711.34 123.629C711.002 123.647 710.674 123.531 710.354 123.283C709.697 122.714 709.014 122.279 708.303 121.977C707.611 121.675 706.687 121.524 705.533 121.524C704.485 121.524 703.5 121.738 702.576 122.164C701.653 122.59 700.836 123.176 700.125 123.922C699.433 124.668 698.891 125.538 698.5 126.532C698.11 127.509 697.914 128.557 697.914 129.676C697.914 130.812 698.11 131.878 698.5 132.872C698.891 133.849 699.433 134.71 700.125 135.456C700.836 136.202 701.653 136.788 702.576 137.214C703.5 137.623 704.485 137.827 705.533 137.827C706.439 137.827 707.291 137.676 708.09 137.374C708.907 137.054 709.688 136.619 710.434 136.069C710.754 135.838 711.065 135.74 711.367 135.776C711.686 135.793 711.953 135.918 712.166 136.149C712.379 136.362 712.485 136.664 712.485 137.054C712.485 137.232 712.45 137.409 712.379 137.587C712.308 137.747 712.201 137.898 712.059 138.04C711.1 138.803 710.07 139.381 708.969 139.771C707.886 140.162 706.74 140.357 705.533 140.357Z" fill="white"/>
<path d="M723.602 140.091C723.212 140.091 722.883 139.958 722.617 139.691C722.35 139.425 722.217 139.096 722.217 138.706V119.287H724.988V138.706C724.988 139.096 724.854 139.425 724.588 139.691C724.322 139.958 723.993 140.091 723.602 140.091ZM716.463 121.844C716.091 121.844 715.78 121.729 715.531 121.498C715.3 121.249 715.185 120.938 715.185 120.565C715.185 120.193 715.3 119.891 715.531 119.66C715.78 119.411 716.091 119.287 716.463 119.287H730.715C731.088 119.287 731.389 119.411 731.62 119.66C731.869 119.891 731.993 120.193 731.993 120.565C731.993 120.938 731.869 121.249 731.62 121.498C731.389 121.729 731.088 121.844 730.715 121.844H716.463Z" fill="white"/>
<path d="M736.978 140.091C736.587 140.091 736.259 139.958 735.992 139.691C735.726 139.425 735.593 139.096 735.593 138.706V120.539C735.593 120.166 735.726 119.864 735.992 119.633C736.259 119.402 736.587 119.287 736.978 119.287C737.387 119.287 737.715 119.402 737.964 119.633C738.23 119.864 738.363 120.166 738.363 120.539V127.305H742.838C744.17 127.305 745.351 127.571 746.381 128.104C747.411 128.637 748.21 129.374 748.779 130.315C749.365 131.238 749.658 132.313 749.658 133.538C749.658 134.817 749.365 135.953 748.779 136.948C748.21 137.924 747.411 138.697 746.381 139.265C745.351 139.816 744.17 140.091 742.838 140.091H736.978ZM738.363 137.534H742.838C743.655 137.534 744.374 137.383 744.996 137.081C745.618 136.779 746.106 136.335 746.461 135.749C746.816 135.145 746.994 134.408 746.994 133.538C746.994 132.65 746.816 131.931 746.461 131.38C746.106 130.812 745.618 130.395 744.996 130.128C744.374 129.844 743.655 129.702 742.838 129.702H738.363V137.534ZM754.159 140.091C753.769 140.091 753.44 139.958 753.174 139.691C752.907 139.425 752.774 139.096 752.774 138.706V120.672C752.774 120.264 752.907 119.935 753.174 119.686C753.44 119.42 753.769 119.287 754.159 119.287C754.55 119.287 754.87 119.42 755.118 119.686C755.385 119.935 755.518 120.264 755.518 120.672V138.706C755.518 139.096 755.385 139.425 755.118 139.691C754.87 139.958 754.55 140.091 754.159 140.091Z" fill="white"/>
<path d="M762.77 140.091C762.379 140.091 762.051 139.958 761.784 139.691C761.518 139.425 761.385 139.096 761.385 138.706V120.672C761.385 120.264 761.518 119.935 761.784 119.686C762.051 119.42 762.379 119.287 762.77 119.287H773.771C774.18 119.287 774.508 119.411 774.757 119.66C775.005 119.891 775.13 120.201 775.13 120.592C775.13 120.965 775.005 121.267 774.757 121.498C774.508 121.729 774.18 121.844 773.771 121.844H764.155V138.706C764.155 139.096 764.022 139.425 763.755 139.691C763.489 139.958 763.161 140.091 762.77 140.091ZM759.52 130.874C759.129 130.874 758.81 130.768 758.561 130.555C758.295 130.342 758.162 130.049 758.162 129.676C758.162 129.303 758.295 129.01 758.561 128.797C758.81 128.583 759.129 128.477 759.52 128.477H768.097C768.506 128.477 768.834 128.583 769.083 128.797C769.349 129.01 769.483 129.303 769.483 129.676C769.483 130.049 769.349 130.342 769.083 130.555C768.834 130.768 768.506 130.874 768.097 130.874H759.52Z" fill="white"/>
<path d="M779.977 140.091C779.587 140.091 779.258 139.958 778.992 139.691C778.725 139.425 778.592 139.096 778.592 138.706V120.539C778.592 120.166 778.725 119.864 778.992 119.633C779.258 119.402 779.587 119.287 779.977 119.287C780.386 119.287 780.714 119.402 780.963 119.633C781.229 119.864 781.362 120.166 781.362 120.539V127.305H785.838C787.169 127.305 788.35 127.571 789.38 128.104C790.41 128.637 791.209 129.374 791.778 130.315C792.364 131.238 792.657 132.313 792.657 133.538C792.657 134.817 792.364 135.953 791.778 136.948C791.209 137.924 790.41 138.697 789.38 139.265C788.35 139.816 787.169 140.091 785.838 140.091H779.977ZM781.362 137.534H785.838C786.654 137.534 787.374 137.383 787.995 137.081C788.617 136.779 789.105 136.335 789.46 135.749C789.815 135.145 789.993 134.408 789.993 133.538C789.993 132.65 789.815 131.931 789.46 131.38C789.105 130.812 788.617 130.395 787.995 130.128C787.374 129.844 786.654 129.702 785.838 129.702H781.362V137.534ZM797.159 140.091C796.768 140.091 796.439 139.958 796.173 139.691C795.907 139.425 795.773 139.096 795.773 138.706V120.672C795.773 120.264 795.907 119.935 796.173 119.686C796.439 119.42 796.768 119.287 797.159 119.287C797.549 119.287 797.869 119.42 798.118 119.686C798.384 119.935 798.517 120.264 798.517 120.672V138.706C798.517 139.096 798.384 139.425 798.118 139.691C797.869 139.958 797.549 140.091 797.159 140.091Z" fill="white"/>
<path d="M645.944 52.6197H655.85V88.7033C655.85 90.2664 657.117 91.5334 658.68 91.5334H665.047C666.61 91.5334 667.878 90.2663 667.878 88.7033V52.6197H677.783C679.346 52.6197 680.613 51.3526 680.613 49.7896V44.8369C680.613 43.2739 679.346 42.0068 677.783 42.0068H645.944C644.381 42.0068 643.114 43.2739 643.114 44.8369V49.7896C643.114 51.3526 644.381 52.6197 645.944 52.6197Z" fill="white"/>
<path d="M690.952 52.6197H700.857V88.7033C700.857 90.2664 702.125 91.5334 703.688 91.5334H710.055C711.618 91.5334 712.885 90.2663 712.885 88.7033V52.6197H722.791C724.354 52.6197 725.621 51.3526 725.621 49.7896V44.8369C725.621 43.2739 724.354 42.0068 722.791 42.0068H690.952C689.389 42.0068 688.122 43.2739 688.122 44.8369V49.7896C688.122 51.3526 689.389 52.6197 690.952 52.6197Z" fill="white"/>
<path d="M743.051 42.0068H738.806H734.959C733.396 42.0068 732.129 43.2739 732.129 44.8369L732.129 88.9629C732.129 90.5259 733.396 91.793 734.959 91.793H743.051C744.614 91.793 745.881 90.5259 745.881 88.9629L745.881 44.8369C745.881 43.2739 744.614 42.0068 743.051 42.0068Z" fill="white"/>
<path d="M523.922 91.5567H530.573C531.895 91.5567 532.967 90.4847 532.967 89.1623V60.0688C532.967 59.7964 533.315 59.6813 533.477 59.8997L548.149 79.5828C548.205 79.6584 548.318 79.6588 548.375 79.5838L563.315 59.8848C563.479 59.6687 563.824 59.7846 563.824 60.0558V88.9303C563.824 90.4933 565.091 91.7604 566.654 91.7604L572.604 91.7605C574.167 91.7605 575.434 90.4934 575.434 88.9304V44.8372C575.434 43.2741 574.167 42.0069 572.604 42.0071L563.831 42.0079C563.383 42.0079 562.962 42.2202 562.695 42.5801L548.488 61.7397C548.375 61.8921 548.147 61.8923 548.034 61.7401L533.827 42.6565C533.56 42.2978 533.14 42.0864 532.692 42.0864H523.922C522.359 42.0864 521.092 43.3535 521.092 44.9165L521.092 88.7266C521.092 90.2896 522.359 91.5567 523.922 91.5567Z" fill="white"/>
<path d="M758.134 89.1103V44.8369C758.134 43.2739 759.401 42.0068 760.964 42.0068H768.039C768.821 42.0068 769.454 42.6404 769.454 43.4219V62.2244L787.142 42.4138H796.37C798.304 42.4138 799.348 44.6827 798.089 46.1513L780.067 67.1771L799.082 88.6458C800.214 89.9242 799.307 91.9404 797.599 91.9404H787.07C786.666 91.9404 786.281 91.7675 786.013 91.4654L769.454 72.8373V90.5253C769.454 91.3068 768.821 91.9404 768.039 91.9404H760.964C759.401 91.9404 758.134 90.6733 758.134 89.1103Z" fill="white"/>
<path d="M470.598 41.0063C467.276 41.0063 465.359 41.1896 464.848 41.5561C464.337 41.8615 464.081 42.3196 464.081 42.9304C464.081 43.5412 466.637 49.008 471.748 59.3307C477.834 71.774 481.236 78.8967 481.955 80.6989C482.066 80.9792 481.998 81.2657 481.811 81.5031C481.556 81.8696 479.99 82.0834 477.115 82.1445L474.143 82.2076C473.3 82.2255 472.518 82.6446 472.036 83.3356C471.333 84.3129 470.982 85.5956 470.982 87.1837C470.982 88.7107 471.333 89.9934 472.036 91.0318C472.394 91.6019 473.019 91.948 473.693 91.948H479.32C482.514 91.948 484.527 91.8869 485.357 91.7648C486.188 91.7037 487.083 91.4593 488.041 91.0318C492.002 89.0772 494.878 85.3207 496.667 79.7623C496.73 79.5791 499.318 73.3793 504.43 61.1631C509.605 48.9469 512.193 42.7777 512.193 42.6555C512.193 42.0447 511.745 41.6172 510.851 41.3728C510.02 41.1285 508.487 41.0063 506.251 41.0063H504.142C502.609 41.0063 501.459 41.495 500.692 42.4723C499.989 43.3274 498.008 47.4809 494.75 54.9328C491.363 62.4458 489.415 66.2023 488.904 66.2023C488.759 66.2023 488.664 66.0567 488.592 65.9317C488.116 65.1065 486.304 61.4402 483.153 54.9328C479.575 47.542 477.722 43.6023 477.594 43.1136C477.467 42.6861 477.083 42.228 476.444 41.7393C475.805 41.2507 473.857 41.0063 470.598 41.0063Z" fill="white"/>
<path d="M412.608 45.5372C413.642 44.7761 414.73 44.0668 415.862 43.4603C419.47 41.5268 425.387 41.0063 431.667 41.0063C434.888 41.0063 437.876 41.1224 440.629 41.3545C443.089 41.5286 444.812 42.5553 445.984 43.0195C447.858 43.9479 449.732 45.3986 451.607 47.3716C453.481 49.3445 454.799 51.2594 455.561 53.1163C456.029 54.3349 456.263 56.4239 456.263 59.3833C456.263 63.5613 455.736 66.7818 454.682 69.0449C453.628 71.308 451.724 73.1358 448.971 74.5285C446.921 75.573 445.222 76.2693 443.875 76.6175C442.528 76.9076 440.36 77.0527 437.373 77.0527H435.176L429.929 76.9885C428.748 76.9741 427.639 76.4206 426.917 75.486V75.486C426.156 74.4415 425.775 73.455 425.775 72.5265C425.775 71.7722 426.01 70.9308 426.478 70.0023C427.122 68.8418 427.825 68.1745 428.587 68.0004C429.407 67.7683 431.662 67.6522 435.352 67.6522C439.16 67.6522 441.532 67.5072 442.469 67.217C443.465 66.9269 444.373 66.0855 445.193 64.6928C445.779 63.6483 446.071 62.1686 446.071 60.2537C446.071 58.3388 445.779 56.8301 445.193 55.7275C444.666 54.625 443.758 53.7546 442.469 53.1163C441.708 52.7101 438.281 52.507 432.189 52.507H425.58C424.033 52.507 422.506 52.8645 421.119 53.5515V53.5515C416.55 55.7566 414.265 60.2247 414.265 66.9559C414.265 69.7992 414.763 72.2074 415.759 74.1803C416.228 75.2248 417.106 76.3854 418.395 77.662C419.742 78.9386 420.943 79.838 421.997 80.3603V80.3603C423.269 80.9905 424.667 81.326 426.087 81.3419L439.482 81.4918C446.745 81.5498 451.252 81.9266 452.892 82.0427C454.532 82.1587 455.371 82.4601 455.722 82.7502C456.191 83.1564 456.727 83.9443 457.137 84.8728C457.606 85.8012 457.845 86.4731 457.845 86.9953C457.845 87.5176 457.665 88.3055 457.137 89.1179C456.669 89.9883 456.25 90.0687 455.722 90.5329C455.371 90.8231 454.42 91.3565 453.6 91.4145C452.838 91.5306 450.981 91.4145 447.525 91.4145L437.637 91.2405L423.095 91.1666C421.386 91.1579 419.696 90.7979 418.131 90.1089V90.1089C409.462 86.5112 404.805 79.867 404.161 70.1764V70.1764C404.161 69.5358 404.073 68.8973 404.073 68.2567C404.073 68.2278 404.073 68.2004 404.073 68.1745C404.073 62.8359 405.069 57.9036 407.061 53.3774C408.717 49.7205 410.412 47.1534 412.608 45.5372Z" fill="white"/>
<path d="M592.637 46.5376C593.671 45.7766 594.76 45.0673 595.891 44.4608C599.5 42.5273 605.416 42.0068 611.696 42.0068C614.918 42.0068 617.905 42.1229 620.658 42.355C623.118 42.5291 624.841 43.5558 626.013 44.02C627.887 44.9484 629.762 46.3991 631.636 48.3721C633.51 50.345 634.828 52.2599 635.59 54.1168C636.058 55.3354 636.293 57.4244 636.293 60.3838C636.293 64.5618 635.766 67.7823 634.711 70.0454C633.657 72.3085 631.753 74.1363 629 75.529C626.95 76.5735 625.251 77.2698 623.904 77.618C622.557 77.9081 620.39 78.0532 617.402 78.0532H615.206L609.958 77.989C608.777 77.9746 607.668 77.4211 606.947 76.4864V76.4864C606.185 75.4419 605.805 74.4555 605.805 73.527C605.805 72.7727 606.039 71.9313 606.507 71.0028C607.152 69.8423 607.855 69.175 608.616 69.0009C609.436 68.7688 611.691 68.6527 615.382 68.6527C619.189 68.6527 621.561 68.5076 622.498 68.2175C623.494 67.9274 624.402 67.086 625.222 65.6933C625.808 64.6488 626.101 63.1691 626.101 61.2542C626.101 59.3393 625.808 57.8306 625.222 56.728C624.695 55.6255 623.787 54.7551 622.498 54.1168C621.737 53.7106 618.31 53.5075 612.218 53.5075H605.61C604.062 53.5075 602.535 53.865 601.148 54.552V54.552C596.579 56.757 594.295 61.2252 594.295 67.9564C594.295 70.7997 594.792 73.2079 595.788 75.1808C596.257 76.2253 597.135 77.3859 598.424 78.6625C599.771 79.9391 600.972 80.8385 602.026 81.3608V81.3608C603.299 81.991 604.697 82.3265 606.116 82.3424L619.511 82.4923C626.774 82.5503 631.282 82.9271 632.922 83.0432C634.562 83.1592 635.4 83.4605 635.752 83.7507C636.22 84.1569 636.757 84.9448 637.167 85.8732C637.635 86.8017 637.874 87.4736 637.874 87.9958C637.874 88.5181 637.694 89.306 637.167 90.1184C636.698 90.9888 636.279 91.0692 635.752 91.5334C635.4 91.8236 634.449 92.357 633.629 92.415C632.868 92.5311 631.01 92.415 627.554 92.415L617.666 92.241L603.125 92.1671C601.415 92.1584 599.725 91.7984 598.161 91.1094V91.1094C589.491 87.5117 584.835 80.8675 584.19 71.1769V71.1769C584.19 70.5363 584.103 69.8978 584.103 69.2572C584.103 69.2283 584.103 69.2009 584.103 69.175C584.103 63.8364 585.098 58.9041 587.09 54.3779C588.746 50.721 590.441 48.1539 592.637 46.5376Z" fill="white"/>
<path d="M367.852 41.62C368.437 41.2109 369.987 41.0063 372.501 41.0063C374.899 41.0063 376.478 41.2401 377.238 41.7076C377.998 42.2336 378.7 43.1686 379.343 44.5127C379.987 45.7983 381.449 49.1585 383.729 54.5933C386.419 60.9046 387.881 64.2941 388.115 64.7616C388.642 65.6966 390.338 69.5828 393.203 76.4201C396.127 83.2574 397.589 86.8513 397.589 87.2019C397.589 88.4876 396.946 89.4518 395.659 90.0947C395.074 90.3868 394.11 90.5329 392.765 90.5329C390.718 90.5329 389.314 90.2408 388.554 89.6564C388.028 89.2473 386.478 86.1208 383.905 80.277C381.39 74.4331 378.934 68.7062 376.536 63.0961C375.564 60.8213 374.775 59.0077 374.168 57.6553C373.269 55.6523 372.121 55.6757 371.225 57.6803C369.97 60.4913 367.91 65.2769 365.045 72.0372L358.23 88.0891C357.876 88.9239 357.203 89.5827 356.361 89.9193V89.9193C355.308 90.3284 354.022 90.5329 352.501 90.5329C352.006 90.5329 351.582 90.5234 351.23 90.5045C350.492 90.4647 349.733 90.307 349.176 89.8225C349.088 89.7459 348.997 89.6613 348.905 89.5687C348.203 88.8674 347.94 88.0785 348.115 87.2019C348.232 86.2669 351.127 78.7868 356.799 64.7616C362.53 50.7364 365.63 43.49 366.098 43.0225C366.566 42.555 367.15 42.0875 367.852 41.62Z" fill="white"/>
<path d="M283.102 36.4969C283.699 36.1702 285.074 35.2668 286.998 35.2014C288.923 35.0707 294.198 35.0054 302.824 35.0054H318.924C320.445 35.0054 321.956 35.2506 323.398 35.7315L325.465 36.4204C330.774 38.1848 333.799 41.6267 336.786 46.2011C339.838 50.7755 341.031 54.9756 341.031 61.1837C341.031 63.2914 341.296 65.9177 341.031 67.5514C339.571 78.2686 334.627 85.6716 326.996 89.3311L326.681 89.4814C324.855 90.3513 322.865 90.8199 320.843 90.8554L318.337 90.8995H314.156C310.507 90.8995 303.108 90.8341 291.96 90.7034L274.267 90.4533C272.219 90.4244 270.201 89.9509 268.353 89.0657L267.475 88.645C263.029 86.4231 259.977 83.8092 258.318 80.8031C256.858 78.3853 256.128 75.4446 256.128 71.9811C256.128 68.0602 257.024 64.4007 258.815 61.0026C259.545 59.4996 260.707 57.9639 262.299 56.3955C263.958 54.8271 265.551 53.6835 267.077 52.9647V52.9647C268.429 52.1316 269.987 51.6904 271.575 51.6904H288.449C297.805 51.6904 303.379 51.7231 305.17 51.7884C307.028 51.8538 308.317 52.1805 309.18 52.5726C311.635 53.6182 313.46 55.4479 314.654 58.0619C315.185 59.3035 315.45 61.0679 315.45 63.3551C315.45 65.773 315.019 67.8315 314.156 69.5305C313.227 71.2949 311.735 73.2656 310.607 73.9191C309.081 74.8993 307.955 75.3588 306.362 75.6856C304.836 75.947 301.776 76.3114 297.463 76.3114C293.813 76.3114 291.524 75.9273 290.595 75.862C289.666 75.7313 288.497 75.5099 287.966 75.1178C286.573 74.0069 286.315 72.6926 286.315 71.2549C286.315 70.6014 286.352 69.2945 286.882 68.5103C287.413 67.7261 288.01 67.1706 288.674 66.8439C289.404 66.4518 292.387 66.1364 297.164 66.1364C301.809 66.1364 303.443 66.2155 304.239 65.8888C305.102 65.4967 305.533 64.7779 305.533 63.7323C305.533 63.3402 305.5 63.0461 305.434 62.8501C305.235 61.9352 304.837 61.3798 304.239 61.1837C303.045 60.857 298.695 60.7085 288.676 60.7085C281.045 60.7085 276.3 60.7738 274.442 60.9045C274.122 60.9162 273.85 60.9327 273.617 60.9559C272.163 61.1003 270.963 62.1597 269.904 63.167C269.268 63.7725 268.69 64.5173 268.156 65.4288C267.16 67.1279 266.873 68.6483 266.741 70.8048C266.674 71.2623 266.741 71.9159 266.741 72.5041C266.741 73.419 266.851 74.1579 267.448 75.3342C268.444 77.2293 269.732 78.8718 272.401 80.2868C273.264 80.7443 280.311 80.0908 295.042 80.2868C306.853 80.4175 314.297 80.2868 316.819 80.2868H318.063C319.22 80.2868 320.381 80.1645 321.487 79.8245C325.785 78.5031 327.184 76.6979 329.71 70.3815C330.374 67.9636 330.878 65.0542 330.878 61.5907C330.878 59.8916 330.812 58.7154 330.679 58.0619C330.215 55.4479 329.585 53.7816 327.926 51.6904C326.334 49.5339 324.408 48.0962 322.219 46.9853C321.356 46.5279 320.062 46.2665 318.337 46.2011C316.678 46.0704 311.237 45.9724 302.013 45.9071C289.737 45.711 283.301 45.4823 282.704 45.2209C281.31 44.4367 281.011 42.1169 281.011 40.4178C281.011 38.7187 281.708 37.4118 283.102 36.4969Z" fill="white"/>
<line x1="224.285" y1="42.4502" x2="224.285" y2="144.333" stroke="white" stroke-width="4.24514"/>
</svg>
